ffmpeg started on 2025-05-05 at 10:48:16
Report written to "D:\Convert\FFMetrics\reports\psnr_report-6.txt"
Log level: 32
Command line:
ffmpeg -hide_banner -nostdin -i "G:\\\xc0\xed\xe8\xec\xe5\\\xce\xed\xe3\xee\xe8\xed\xe3\xe8\\!_35_\xcb\xe5\xf2\xee_2024\\JamClub-1\\\xdd\xf2\xee\xf2 \xec\xe8\xf0 \xf1\xeb\xe8\xf8\xea\xee\xec \xed\xe5\xf1\xee\xe2\xe5\xf0\xf8\xe5\xed\xe5\xed\\JamClub_Kono_Sekai_wa_Fukanzen_Sugiru_01_1080p_HEVC.mkv" -i "G:\\\xc0\xed\xe8\xec\xe5\\\xce\xed\xe3\xee\xe8\xed\xe3\xe8\\!_35_\xcb\xe5\xf2\xee_2024\\JamClub-1\\\xdd\xf2\xee\xf2 \xec\xe8\xf0 \xf1\xeb\xe8\xf8\xea\xee\xec \xed\xe5\xf1\xee\xe2\xe5\xf0\xf8\xe5\xed\xe5\xed\\JamClub_Kono_Sekai_wa_Fukanzen_Sugiru_01_1080p.mp4" -lavfi "[0:v]settb=AVTB,setpts=PTS-STARTPTS,format=pix_fmts=yuv420p10,fps=24000/1001,scale=1920:1080:flags=bicubic[main];[1:v]settb=AVTB,setpts=PTS-STARTPTS,format=pix_fmts=yuv420p,fps=24000/1001,scale=1920:1080:flags=bicubic[ref];[main][ref]psnr=eof_action=endall:stats_file='D\\:/Convert/FFMetrics/logs/psnr_logfile-6.txt'" -f null -
Input #0, matroska,webm, from 'G:\Аниме\Онгоинги\!_35_Лето_2024\JamClub-1\Этот мир слишком несовершенен\JamClub_Kono_Sekai_wa_Fukanzen_Sugiru_01_1080p_HEVC.mkv':
  Metadata:
    COMPATIBLE_BRANDS: isomiso2avc1mp41
    MAJOR_BRAND     : isom
    MINOR_VERSION   : 512
    ENCODER         : Lavf61.7.100
  Duration: 00:24:27.33, start: -0.021000, bitrate: 1403 kb/s
  Stream #0:0: Video: hevc (Main 10), yuv420p10le(tv, bt709, progressive), 1920x1080 [SAR 1:1 DAR 16:9], 23.98 fps, 23.98 tbr, 1k tbn (default)
      Metadata:
        HANDLER_NAME    : VideoHandler
        VENDOR_ID       : [0][0][0][0]
        ENCODER         : Lavc61.19.100 libx265
        BPS             : 1205507
        DURATION        : 00:24:27.173708333
        NUMBER_OF_FRAMES: 35177
        NUMBER_OF_BYTES : 221086063
        _STATISTICS_WRITING_APP: mkvpropedit v66.0.0 ('Josie') 64-bit
        _STATISTICS_WRITING_DATE_UTC: 2025-05-04 15:14:41
        _STATISTICS_TAGS: BPS DURATION NUMBER_OF_FRAMES NUMBER_OF_BYTES
  Stream #0:1(eng): Audio: aac (LC), 48000 Hz, stereo, fltp (default)
      Metadata:
        HANDLER_NAME    : SoundHandler
        VENDOR_ID       : [0][0][0][0]
        ENCODER         : Lavc61.19.100 aac
        BPS             : 194224
        DURATION        : 00:24:27.309000000
        NUMBER_OF_FRAMES: 68781
        NUMBER_OF_BYTES : 35623443
        _STATISTICS_WRITING_APP: mkvpropedit v66.0.0 ('Josie') 64-bit
        _STATISTICS_WRITING_DATE_UTC: 2025-05-04 15:14:41
        _STATISTICS_TAGS: BPS DURATION NUMBER_OF_FRAMES NUMBER_OF_BYTES
Input #1, mov,mp4,m4a,3gp,3g2,mj2, from 'G:\Аниме\Онгоинги\!_35_Лето_2024\JamClub-1\Этот мир слишком несовершенен\JamClub_Kono_Sekai_wa_Fukanzen_Sugiru_01_1080p.mp4':
  Metadata:
    major_brand     : isom
    minor_version   : 512
    compatible_brands: isomiso2avc1mp41
    encoder         : Lavf60.16.100
  Duration: 00:24:27.31, start: 0.000000, bitrate: 3947 kb/s
  Stream #1:0[0x1](und): Video: h264 (High) (avc1 / 0x31637661), yuv420p(tv, bt709, progressive), 1920x1080 [SAR 1:1 DAR 16:9], 3749 kb/s, 23.98 fps, 23.98 tbr, 90k tbn (default)
      Metadata:
        handler_name    : VideoHandler
        vendor_id       : [0][0][0][0]
  Stream #1:1[0x2](eng): Audio: aac (LC) (mp4a / 0x6134706D), 48000 Hz, stereo, fltp, 191 kb/s (default)
      Metadata:
        handler_name    : SoundHandler
        vendor_id       : [0][0][0][0]
Stream mapping:
  Stream #0:0 (hevc) -> settb:default
  Stream #1:0 (h264) -> settb:default
  psnr:default -> Stream #0:0 (wrapped_avframe)
  Stream #0:1 -> #0:1 (aac (native) -> pcm_s16le (native))
Output #0, null, to 'pipe:':
  Metadata:
    COMPATIBLE_BRANDS: isomiso2avc1mp41
    MAJOR_BRAND     : isom
    MINOR_VERSION   : 512
    encoder         : Lavf61.7.100
  Stream #0:0: Video: wrapped_avframe, yuv420p10le(tv, bt709, progressive), 1920x1080 [SAR 1:1 DAR 16:9], q=2-31, 200 kb/s, 23.98 fps, 23.98 tbn
      Metadata:
        encoder         : Lavc61.19.100 wrapped_avframe
  Stream #0:1(eng): Audio: pcm_s16le, 48000 Hz, stereo, s16, 1536 kb/s (default)
      Metadata:
        HANDLER_NAME    : SoundHandler
        VENDOR_ID       : [0][0][0][0]
        _STATISTICS_TAGS: BPS DURATION NUMBER_OF_FRAMES NUMBER_OF_BYTES
        BPS             : 194224
        DURATION        : 00:24:27.309000000
        NUMBER_OF_FRAMES: 68781
        NUMBER_OF_BYTES : 35623443
        _STATISTICS_WRITING_APP: mkvpropedit v66.0.0 ('Josie') 64-bit
        _STATISTICS_WRITING_DATE_UTC: 2025-05-04 15:14:41
        encoder         : Lavc61.19.100 pcm_s16le
frame=  118 fps=0.0 q=-0.0 size=N/A time=00:00:04.92 bitrate=N/A speed=9.71x    frame=  284 fps=275 q=-0.0 size=N/A time=00:00:11.84 bitrate=N/A speed=11.5x    frame=  482 fps=313 q=-0.0 size=N/A time=00:00:20.10 bitrate=N/A speed=13.1x    frame=  651 fps=316 q=-0.0 size=N/A time=00:00:27.15 bitrate=N/A speed=13.2x    frame=  889 fps=346 q=-0.0 size=N/A time=00:00:37.07 bitrate=N/A speed=14.4x    frame= 1111 fps=360 q=-0.0 size=N/A time=00:00:46.33 bitrate=N/A speed=  15x    frame= 1321 fps=367 q=-0.0 size=N/A time=00:00:55.09 bitrate=N/A speed=15.3x    frame= 1549 fps=376 q=-0.0 size=N/A time=00:01:04.60 bitrate=N/A speed=15.7x    frame= 1734 fps=375 q=-0.0 size=N/A time=00:01:12.32 bitrate=N/A speed=15.6x    frame= 1964 fps=382 q=-0.0 size=N/A time=00:01:21.91 bitrate=N/A speed=15.9x    frame= 2220 fps=392 q=-0.0 size=N/A time=00:01:32.59 bitrate=N/A speed=16.4x    frame= 2424 fps=392 q=-0.0 size=N/A time=00:01:41.10 bitrate=N/A speed=16.4x    frame= 2627 fps=392 q=-0.0 size=N/A time=00:01:49.56 bitrate=N/A speed=16.4x    frame= 2871 fps=398 q=-0.0 size=N/A time=00:01:59.74 bitrate=N/A speed=16.6x    frame= 3085 fps=399 q=-0.0 size=N/A time=00:02:08.67 bitrate=N/A speed=16.7x    frame= 3324 fps=403 q=-0.0 size=N/A time=00:02:18.63 bitrate=N/A speed=16.8x    frame= 3537 fps=404 q=-0.0 size=N/A time=00:02:27.52 bitrate=N/A speed=16.8x    frame= 3779 fps=408 q=-0.0 size=N/A time=00:02:37.61 bitrate=N/A speed=  17x    frame= 3974 fps=406 q=-0.0 size=N/A time=00:02:45.74 bitrate=N/A speed=16.9x    frame= 4238 fps=411 q=-0.0 size=N/A time=00:02:56.75 bitrate=N/A speed=17.2x    frame= 4483 fps=414 q=-0.0 size=N/A time=00:03:06.97 bitrate=N/A speed=17.3x    frame= 4680 fps=413 q=-0.0 size=N/A time=00:03:15.19 bitrate=N/A speed=17.2x    frame= 4914 fps=414 q=-0.0 size=N/A time=00:03:24.95 bitrate=N/A speed=17.3x    frame= 5092 fps=412 q=-0.0 size=N/A time=00:03:32.37 bitrate=N/A speed=17.2x    frame= 5340 fps=415 q=-0.0 size=N/A time=00:03:42.72 bitrate=N/A speed=17.3x    frame= 5575 fps=416 q=-0.0 size=N/A time=00:03:52.52 bitrate=N/A speed=17.4x    frame= 5824 fps=419 q=-0.0 size=N/A time=00:04:02.90 bitrate=N/A speed=17.5x    frame= 6083 fps=421 q=-0.0 size=N/A time=00:04:13.71 bitrate=N/A speed=17.6x    frame= 6343 fps=424 q=-0.0 size=N/A time=00:04:24.55 bitrate=N/A speed=17.7x    frame= 6622 fps=428 q=-0.0 size=N/A time=00:04:36.19 bitrate=N/A speed=17.9x    frame= 6898 fps=432 q=-0.0 size=N/A time=00:04:47.70 bitrate=N/A speed=  18x    frame= 7139 fps=433 q=-0.0 size=N/A time=00:04:57.75 bitrate=N/A speed=18.1x    frame= 7349 fps=432 q=-0.0 size=N/A time=00:05:06.51 bitrate=N/A speed=  18x    frame= 7613 fps=435 q=-0.0 size=N/A time=00:05:17.52 bitrate=N/A speed=18.1x    frame= 7872 fps=436 q=-0.0 size=N/A time=00:05:28.32 bitrate=N/A speed=18.2x    frame= 8084 fps=436 q=-0.0 size=N/A time=00:05:37.17 bitrate=N/A speed=18.2x    frame= 8315 fps=436 q=-0.0 size=N/A time=00:05:46.80 bitrate=N/A speed=18.2x    frame= 8436 fps=431 q=-0.0 size=N/A time=00:05:51.85 bitrate=N/A speed=  18x    frame= 8595 fps=427 q=-0.0 size=N/A time=00:05:58.48 bitrate=N/A speed=17.8x    frame= 8779 fps=426 q=-0.0 size=N/A time=00:06:06.15 bitrate=N/A speed=17.8x    frame= 8959 fps=424 q=-0.0 size=N/A time=00:06:13.66 bitrate=N/A speed=17.7x    frame= 9140 fps=422 q=-0.0 size=N/A time=00:06:21.21 bitrate=N/A speed=17.6x    frame= 9343 fps=422 q=-0.0 size=N/A time=00:06:29.68 bitrate=N/A speed=17.6x    frame= 9586 fps=423 q=-0.0 size=N/A time=00:06:39.81 bitrate=N/A speed=17.6x    frame= 9838 fps=424 q=-0.0 size=N/A time=00:06:50.32 bitrate=N/A speed=17.7x    frame=10088 fps=426 q=-0.0 size=N/A time=00:07:00.75 bitrate=N/A speed=17.7x    frame=10337 fps=427 q=-0.0 size=N/A time=00:07:11.13 bitrate=N/A speed=17.8x    frame=10603 fps=428 q=-0.0 size=N/A time=00:07:22.23 bitrate=N/A speed=17.9x    frame=10857 fps=430 q=-0.0 size=N/A time=00:07:32.82 bitrate=N/A speed=17.9x    frame=11082 fps=430 q=-0.0 size=N/A time=00:07:42.21 bitrate=N/A speed=17.9x    frame=11327 fps=431 q=-0.0 size=N/A time=00:07:52.43 bitrate=N/A speed=  18x    frame=11572 fps=432 q=-0.0 size=N/A time=00:08:02.64 bitrate=N/A speed=  18x    frame=11820 fps=433 q=-0.0 size=N/A time=00:08:12.99 bitrate=N/A speed=  18x    frame=12094 fps=434 q=-0.0 size=N/A time=00:08:24.42 bitrate=N/A speed=18.1x    frame=12344 fps=435 q=-0.0 size=N/A time=00:08:34.84 bitrate=N/A speed=18.2x    frame=12601 fps=437 q=-0.0 size=N/A time=00:08:45.56 bitrate=N/A speed=18.2x    frame=12832 fps=437 q=-0.0 size=N/A time=00:08:55.20 bitrate=N/A speed=18.2x    frame=13054 fps=437 q=-0.0 size=N/A time=00:09:04.46 bitrate=N/A speed=18.2x    frame=13289 fps=437 q=-0.0 size=N/A time=00:09:14.26 bitrate=N/A speed=18.2x    frame=13521 fps=437 q=-0.0 size=N/A time=00:09:23.93 bitrate=N/A speed=18.2x    frame=13756 fps=437 q=-0.0 size=N/A time=00:09:33.73 bitrate=N/A speed=18.2x    frame=13954 fps=437 q=-0.0 size=N/A time=00:09:41.99 bitrate=N/A speed=18.2x    frame=14151 fps=436 q=-0.0 size=N/A time=00:09:50.21 bitrate=N/A speed=18.2x    frame=14342 fps=435 q=-0.0 size=N/A time=00:09:58.18 bitrate=N/A speed=18.1x    frame=14565 fps=435 q=-0.0 size=N/A time=00:10:07.48 bitrate=N/A speed=18.1x    frame=14808 fps=435 q=-0.0 size=N/A time=00:10:17.61 bitrate=N/A speed=18.2x    frame=15049 fps=436 q=-0.0 size=N/A time=00:10:27.66 bitrate=N/A speed=18.2x    frame=15293 fps=436 q=-0.0 size=N/A time=00:10:37.84 bitrate=N/A speed=18.2x    frame=15556 fps=437 q=-0.0 size=N/A time=00:10:48.81 bitrate=N/A speed=18.2x    frame=15827 fps=438 q=-0.0 size=N/A time=00:11:00.11 bitrate=N/A speed=18.3x    frame=16086 fps=439 q=-0.0 size=N/A time=00:11:10.92 bitrate=N/A speed=18.3x    frame=16334 fps=440 q=-0.0 size=N/A time=00:11:21.26 bitrate=N/A speed=18.4x    frame=16565 fps=440 q=-0.0 size=N/A time=00:11:30.89 bitrate=N/A speed=18.4x    frame=16821 fps=441 q=-0.0 size=N/A time=00:11:41.57 bitrate=N/A speed=18.4x    frame=17035 fps=441 q=-0.0 size=N/A time=00:11:50.50 bitrate=N/A speed=18.4x    frame=17280 fps=441 q=-0.0 size=N/A time=00:12:00.72 bitrate=N/A speed=18.4x    frame=17542 fps=442 q=-0.0 size=N/A time=00:12:11.64 bitrate=N/A speed=18.4x    frame=17794 fps=443 q=-0.0 size=N/A time=00:12:22.15 bitrate=N/A speed=18.5x    frame=18037 fps=443 q=-0.0 size=N/A time=00:12:32.29 bitrate=N/A speed=18.5x    frame=18274 fps=443 q=-0.0 size=N/A time=00:12:42.17 bitrate=N/A speed=18.5x    frame=18522 fps=444 q=-0.0 size=N/A time=00:12:52.52 bitrate=N/A speed=18.5x    frame=18748 fps=443 q=-0.0 size=N/A time=00:13:01.94 bitrate=N/A speed=18.5x    frame=18945 fps=443 q=-0.0 size=N/A time=00:13:10.16 bitrate=N/A speed=18.5x    frame=19203 fps=443 q=-0.0 size=N/A time=00:13:20.92 bitrate=N/A speed=18.5x    frame=19410 fps=443 q=-0.0 size=N/A time=00:13:29.55 bitrate=N/A speed=18.5x    frame=19652 fps=443 q=-0.0 size=N/A time=00:13:39.65 bitrate=N/A speed=18.5x    frame=19900 fps=444 q=-0.0 size=N/A time=00:13:49.99 bitrate=N/A speed=18.5x    frame=20157 fps=444 q=-0.0 size=N/A time=00:14:00.71 bitrate=N/A speed=18.5x    frame=20414 fps=445 q=-0.0 size=N/A time=00:14:11.43 bitrate=N/A speed=18.6x    frame=20649 fps=445 q=-0.0 size=N/A time=00:14:21.23 bitrate=N/A speed=18.6x    frame=20894 fps=445 q=-0.0 size=N/A time=00:14:31.45 bitrate=N/A speed=18.6x    frame=21149 fps=446 q=-0.0 size=N/A time=00:14:42.08 bitrate=N/A speed=18.6x    frame=21404 fps=446 q=-0.0 size=N/A time=00:14:52.72 bitrate=N/A speed=18.6x    frame=21635 fps=446 q=-0.0 size=N/A time=00:15:02.35 bitrate=N/A speed=18.6x    frame=21885 fps=447 q=-0.0 size=N/A time=00:15:12.78 bitrate=N/A speed=18.6x    frame=22134 fps=447 q=-0.0 size=N/A time=00:15:23.17 bitrate=N/A speed=18.6x    frame=22403 fps=448 q=-0.0 size=N/A time=00:15:34.39 bitrate=N/A speed=18.7x    frame=22677 fps=449 q=-0.0 size=N/A time=00:15:45.81 bitrate=N/A speed=18.7x    frame=22912 fps=449 q=-0.0 size=N/A time=00:15:55.62 bitrate=N/A speed=18.7x    frame=23151 fps=449 q=-0.0 size=N/A time=00:16:05.58 bitrate=N/A speed=18.7x    frame=23408 fps=449 q=-0.0 size=N/A time=00:16:16.30 bitrate=N/A speed=18.7x    frame=23662 fps=450 q=-0.0 size=N/A time=00:16:26.90 bitrate=N/A speed=18.8x    frame=23931 fps=450 q=-0.0 size=N/A time=00:16:38.12 bitrate=N/A speed=18.8x    frame=24186 fps=451 q=-0.0 size=N/A time=00:16:48.75 bitrate=N/A speed=18.8x    frame=24436 fps=451 q=-0.0 size=N/A time=00:16:59.18 bitrate=N/A speed=18.8x    frame=24693 fps=452 q=-0.0 size=N/A time=00:17:09.90 bitrate=N/A speed=18.8x    frame=24901 fps=451 q=-0.0 size=N/A time=00:17:18.57 bitrate=N/A speed=18.8x    frame=25172 fps=452 q=-0.0 size=N/A time=00:17:29.88 bitrate=N/A speed=18.8x    frame=25444 fps=453 q=-0.0 size=N/A time=00:17:41.22 bitrate=N/A speed=18.9x    frame=25735 fps=454 q=-0.0 size=N/A time=00:17:53.36 bitrate=N/A speed=18.9x    frame=26009 fps=454 q=-0.0 size=N/A time=00:18:04.79 bitrate=N/A speed=  19x    frame=26299 fps=455 q=-0.0 size=N/A time=00:18:16.88 bitrate=N/A speed=  19x    frame=26540 fps=455 q=-0.0 size=N/A time=00:18:26.93 bitrate=N/A speed=  19x    frame=26818 fps=456 q=-0.0 size=N/A time=00:18:38.57 bitrate=N/A speed=  19x    frame=27064 fps=456 q=-0.0 size=N/A time=00:18:48.79 bitrate=N/A speed=  19x    frame=27262 fps=456 q=-0.0 size=N/A time=00:18:57.05 bitrate=N/A speed=  19x    frame=27486 fps=455 q=-0.0 size=N/A time=00:19:06.39 bitrate=N/A speed=  19x    frame=27740 fps=456 q=-0.0 size=N/A time=00:19:16.98 bitrate=N/A speed=  19x    frame=27928 fps=455 q=-0.0 size=N/A time=00:19:24.83 bitrate=N/A speed=  19x    frame=28121 fps=454 q=-0.0 size=N/A time=00:19:32.88 bitrate=N/A speed=  19x    frame=28314 fps=454 q=-0.0 size=N/A time=00:19:40.92 bitrate=N/A speed=18.9x    frame=28556 fps=454 q=-0.0 size=N/A time=00:19:51.02 bitrate=N/A speed=18.9x    frame=28829 fps=454 q=-0.0 size=N/A time=00:20:02.40 bitrate=N/A speed=  19x    frame=29074 fps=455 q=-0.0 size=N/A time=00:20:12.62 bitrate=N/A speed=  19x    frame=29363 fps=455 q=-0.0 size=N/A time=00:20:24.68 bitrate=N/A speed=  19x    frame=29623 fps=456 q=-0.0 size=N/A time=00:20:35.52 bitrate=N/A speed=  19x    frame=29879 fps=456 q=-0.0 size=N/A time=00:20:46.20 bitrate=N/A speed=  19x    frame=30118 fps=456 q=-0.0 size=N/A time=00:20:56.17 bitrate=N/A speed=  19x    frame=30343 fps=456 q=-0.0 size=N/A time=00:21:05.55 bitrate=N/A speed=  19x    frame=30566 fps=456 q=-0.0 size=N/A time=00:21:14.85 bitrate=N/A speed=  19x    frame=30779 fps=456 q=-0.0 size=N/A time=00:21:23.74 bitrate=N/A speed=  19x    frame=31010 fps=456 q=-0.0 size=N/A time=00:21:33.37 bitrate=N/A speed=  19x    frame=31278 fps=456 q=-0.0 size=N/A time=00:21:44.55 bitrate=N/A speed=  19x    frame=31537 fps=456 q=-0.0 size=N/A time=00:21:55.35 bitrate=N/A speed=  19x    frame=31806 fps=457 q=-0.0 size=N/A time=00:22:06.57 bitrate=N/A speed=19.1x    frame=32070 fps=457 q=-0.0 size=N/A time=00:22:17.58 bitrate=N/A speed=19.1x    frame=32331 fps=458 q=-0.0 size=N/A time=00:22:28.47 bitrate=N/A speed=19.1x    frame=32588 fps=458 q=-0.0 size=N/A time=00:22:39.19 bitrate=N/A speed=19.1x    frame=32832 fps=458 q=-0.0 size=N/A time=00:22:49.36 bitrate=N/A speed=19.1x    frame=33071 fps=458 q=-0.0 size=N/A time=00:22:59.33 bitrate=N/A speed=19.1x    frame=33281 fps=458 q=-0.0 size=N/A time=00:23:08.09 bitrate=N/A speed=19.1x    frame=33489 fps=457 q=-0.0 size=N/A time=00:23:16.77 bitrate=N/A speed=19.1x    frame=33708 fps=457 q=-0.0 size=N/A time=00:23:25.90 bitrate=N/A speed=19.1x    frame=33907 fps=457 q=-0.0 size=N/A time=00:23:34.20 bitrate=N/A speed=  19x    frame=34061 fps=456 q=-0.0 size=N/A time=00:23:40.62 bitrate=N/A speed=  19x    frame=34282 fps=455 q=-0.0 size=N/A time=00:23:49.84 bitrate=N/A speed=  19x    frame=34458 fps=455 q=-0.0 size=N/A time=00:23:57.18 bitrate=N/A speed=  19x    frame=34666 fps=454 q=-0.0 size=N/A time=00:24:05.86 bitrate=N/A speed=18.9x    frame=34889 fps=454 q=-0.0 size=N/A time=00:24:15.16 bitrate=N/A speed=18.9x    frame=35111 fps=454 q=-0.0 size=N/A time=00:24:24.42 bitrate=N/A speed=18.9x    [Parsed_psnr_10 @ 0000020dc2915780] PSNR y:48.063902 u:49.967091 v:50.718133 average:48.695497 min:37.690439 max:inf
[out#0/null @ 0000020dbf186e00] video:15115KiB audio:275124KiB subtitle:0KiB other streams:0KiB global headers:0KiB muxing overhead: unknown
frame=35177 fps=454 q=-0.0 Lsize=N/A time=00:24:27.17 bitrate=N/A speed=18.9x    
